PathFileType	4	(X/Y/Z)	C:/Users/opensim2020/Desktop/walking_exp_matlab/subject01_walking10_straight_01.trc	
DataRate	CameraRate	NumFrames	NumMarkers	Units	OrigDataRate	OrigDataStartFrame	OrigNumFrames	
100.00	100.00	5	43	mm	100.00	922	349	
Frame#	Time	LFHD			RFHD			LBHD			RBHD			C7			T10			CLAV			STRN			RBAK			LSHO			LUPA			LELB			LFRM			LWRA			LWRB			LFIN			RSHO			RUPA			RELB			RFRM			RWRA			RWRB			RFIN			LASI			RASI			LPSI			RPSI			LTHI			LKNE			LTIB			LANK			LHEE			LTOE			RTHI			RKNE			RTIB			RANK			RHEE			RTOE			*39			*40			*41			*42			
		X1	Y1	Z1	X2	Y2	Z2	X3	Y3	Z3	X4	Y4	Z4	X5	Y5	Z5	X6	Y6	Z6	X7	Y7	Z7	X8	Y8	Z8	X9	Y9	Z9	X10	Y10	Z10	X11	Y11	Z11	X12	Y12	Z12	X13	Y13	Z13	X14	Y14	Z14	X15	Y15	Z15	X16	Y16	Z16	X17	Y17	Z17	X18	Y18	Z18	X19	Y19	Z19	X20	Y20	Z20	X21	Y21	Z21	X22	Y22	Z22	X23	Y23	Z23	X24	Y24	Z24	X25	Y25	Z25	X26	Y26	Z26	X27	Y27	Z27	X28	Y28	Z28	X29	Y29	Z29	X30	Y30	Z30	X31	Y31	Z31	X32	Y32	Z32	X33	Y33	Z33	X34	Y34	Z34	X35	Y35	Z35	X36	Y36	Z36	X37	Y37	Z37	X38	Y38	Z38	X39	Y39	Z39	X40	Y40	Z40	X41	Y41	Z41	X42	Y42	Z42	X43	Y43	Z43	

1	0.000	1463.18945	-1099.96960	1668.01270	1572.41626	-1068.19397	1679.23145	1490.09106	-1196.82068	1594.12585	1606.58228	-1166.19971	1604.34753	1515.19788	-1203.47168	1430.37512	1511.27234	-1256.23376	1139.83630	1515.12463	-1061.76794	1358.21082	1504.73804	-1029.58313	1198.85815	1587.22778	-1270.32300	1239.58704	1354.22058	-1118.41931	1397.16943	1262.91614	-1160.48633	1217.55383	1259.26453	-1188.69678	1070.76550	1229.75989	-1166.33582	960.66089	1243.20276	-1108.94409	832.87225	1216.61963	-1161.76245	838.62122	1206.27136	-1125.33801	762.10419	1665.28833	-1125.75122	1381.96912	1764.43774	-1172.59619	1178.84351	1765.86707	-1159.49438	1053.48523	1793.74963	-1106.76184	943.58069	1776.16467	-1000.06128	850.90216	1812.57056	-1044.97937	840.29828	1814.27747	-990.04913	775.68298	1400.21716	-1087.04333	932.65778	1617.74036	-1094.83264	921.41412	1444.01636	-1274.23889	943.87994	1588.77026	-1279.93469	944.62244	1322.87976	-1057.36194	611.83447	1339.76697	-1033.54517	480.63104	1325.24878	-1038.29834	295.36343	1368.38159	-996.57635	76.57709	1425.26624	-1027.70618	37.07052	1352.03821	-848.39880	70.08561	1659.99695	-1187.76892	593.09528	1632.59827	-1199.43274	434.89645	1629.75940	-1283.02454	277.92850	1571.26221	-1336.40295	78.58144	1515.24768	-1382.95325	47.11208	1586.44128	-1201.35364	28.60065	1553.60791	-1092.53210	1707.91931	-3102.03955	1973.09973	1023.38922	-3140.65820	2012.47034	1021.99884			 
2	0.010	1461.89844	-1094.70361	1667.50208	1571.09473	-1063.17029	1679.06104	1488.77380	-1191.81628	1593.81873	1605.33044	-1161.12244	1604.09558	1514.30823	-1198.24622	1430.01526	1510.64722	-1251.01282	1139.51123	1514.07336	-1056.39392	1357.77295	1503.74365	-1024.51013	1198.42114	1586.65002	-1265.00024	1239.32690	1353.18958	-1113.54297	1396.63892	1262.26941	-1156.07971	1216.78748	1258.93933	-1184.22461	1070.13599	1229.38049	-1162.67847	960.10449	1243.10657	-1105.83337	832.08282	1216.17175	-1158.62695	837.98169	1205.91516	-1122.52234	761.22040	1664.28162	-1120.07581	1381.70654	1763.47815	-1166.60779	1178.51318	1764.90491	-1153.01160	1053.14661	1792.55786	-1100.01697	943.35199	1774.44238	-993.16132	850.88342	1811.01086	-1037.84644	840.09460	1812.36169	-982.84814	775.54999	1399.77075	-1081.76990	932.05505	1617.40552	-1089.58508	921.18073	1443.54370	-1269.08923	943.45581	1588.23840	-1274.72668	944.30713	1322.22278	-1053.52332	611.06927	1338.82947	-1029.42896	480.27615	1323.99072	-1030.84424	295.14120	1366.99683	-984.63135	76.85509	1423.63123	-1015.16803	36.86244	1350.82874	-836.17834	73.08282	1659.65479	-1183.23108	592.84521	1632.41858	-1195.87769	434.85443	1629.80750	-1280.77759	278.54437	1571.49744	-1335.88452	79.49234	1515.53638	-1382.73035	48.47610	1586.60693	-1201.27478	28.55254	1552.25659	-1087.44543	1707.66650	-3102.05127	1973.07654	1023.82086	-3140.74146	2012.56006	1022.10980			 
3	0.020	1460.46887	-1089.60742	1667.16003	1569.71973	-1058.06470	1678.73254	1487.40686	-1186.68005	1593.42542	1603.95947	-1156.00940	1603.80432	1513.24744	-1192.96497	1429.67053	1509.91504	-1245.76038	1139.15601	1512.92786	-1051.08667	1357.47693	1502.68701	-1019.35443	1198.01453	1585.92737	-1259.65527	1239.10010	1352.04382	-1108.57800	1396.09302	1261.42102	-1151.55017	1216.24866	1258.19250	-1180.21960	1069.61340	1228.65222	-1158.53418	959.34155	1242.44299	-1102.43201	831.20819	1215.88013	-1155.31519	837.27374	1205.59717	-1119.54260	760.37970	1663.17920	-1114.64819	1381.46411	1762.50391	-1160.75720	1178.10938	1763.84290	-1146.67371	1052.85437	1791.22607	-1093.36157	943.14154	1772.69653	-986.42944	850.82288	1809.35559	-1030.91858	839.95367	1810.45325	-975.92822	775.38031	1399.18311	-1076.51416	931.41406	1616.93921	-1084.22766	921.00397	1442.95703	-1263.83423	943.04095	1587.63550	-1269.31262	944.07343	1321.45386	-1049.37329	610.44482	1338.02783	-1025.13269	479.98737	1322.75537	-1023.65656	294.85770	1365.39868	-973.89014	77.14737	1422.04651	-1003.66327	36.56308	1349.87402	-825.01520	75.80683	1659.47986	-1178.75195	592.86713	1632.32324	-1192.31958	434.98782	1629.81689	-1278.39294	278.97778	1571.75293	-1335.10144	80.42680	1515.71558	-1382.30042	49.53977	1586.53015	-1201.13342	28.53549	1550.85168	-1082.40417	1707.38135	-3101.79834	1973.16724	1023.59741	-3140.67285	2012.54468	1022.12744			 
4	0.030	1458.97632	-1084.38147	1666.78601	1568.25562	-1052.89429	1678.37415	1485.94238	-1181.49658	1593.06677	1602.43225	-1150.84314	1603.48914	1512.13843	-1187.76306	1429.32495	1509.05298	-1240.41455	1138.82727	1510.46655	-1047.38159	1357.11462	1501.59143	-1014.10315	1197.63330	1585.04785	-1254.25085	1238.77197	1350.82104	-1103.59070	1395.54846	1260.49036	-1146.91382	1215.57202	1257.53748	-1175.59399	1069.01428	1228.24719	-1154.67554	958.67444	1242.32971	-1098.99805	830.34357	1215.41296	-1151.71387	836.61908	1205.29309	-1116.42102	759.75726	1662.01953	-1109.02124	1381.22681	1761.26831	-1154.72107	1177.75159	1762.58569	-1140.32654	1052.50610	1789.85229	-1086.77930	942.92188	1770.91382	-979.88483	850.72357	1807.76086	-1024.28589	839.80640	1808.46973	-969.17914	775.22095	1398.56653	-1071.17029	930.86035	1616.42664	-1078.63086	920.86987	1442.34155	-1258.44446	942.58862	1587.01672	-1263.84827	943.85394	1320.70776	-1044.84363	609.98425	1337.20203	-1020.54681	479.69687	1321.55090	-1016.94757	294.61917	1364.15735	-964.07697	77.71062	1420.67542	-993.21735	36.32743	1348.93823	-814.81360	77.76248	1659.21619	-1174.31360	592.88837	1632.21167	-1188.68274	434.86575	1629.79968	-1276.02563	279.67789	1572.05005	-1334.43591	81.36642	1516.28357	-1382.16016	51.19157	1586.71289	-1201.01184	28.46437	1549.29919	-1077.27747	1707.04480	-3101.97095	1973.07837	1023.97986	-3140.70239	2012.52966	1022.17639			 
5	0.040	1457.43640	-1079.17810	1666.47644	1566.55090	-1047.73584	1678.14563	1484.36218	-1176.31201	1592.71008	1600.84839	-1145.65918	1603.20007	1510.87305	-1182.48474	1428.98596	1508.04272	-1234.93494	1138.34570	1510.23853	-1040.35767	1356.79004	1500.33972	-1008.82751	1197.24634	1584.02087	-1248.80029	1238.45471	1349.45508	-1098.51270	1395.01306	1259.45471	-1142.15137	1214.93933	1256.76709	-1170.93433	1068.54443	1227.58765	-1150.36755	957.98969	1241.96326	-1095.18176	829.49475	1214.89893	-1147.85828	835.90143	1204.97742	-1112.77563	758.74017	1660.71472	-1103.57471	1381.03723	1760.00232	-1148.73169	1177.48828	1761.22437	-1134.07666	1052.24475	1788.30823	-1080.39490	942.68213	1769.01868	-973.47876	850.52692	1805.99744	-1017.72656	839.59106	1806.46838	-962.61322	774.94556	1397.80212	-1065.64551	930.29608	1615.72461	-1072.96667	920.70081	1441.65540	-1252.91650	942.16028	1586.18555	-1257.96204	943.31879	1319.99744	-1039.89917	609.50793	1336.43896	-1015.67908	479.37790	1320.53174	-1010.41437	294.26630	1362.84021	-955.01715	77.45962	1419.26868	-983.95575	36.00103	1348.00146	-805.90344	79.39879	1659.01160	-1169.82556	593.10645	1631.94189	-1185.13550	435.04736	1630.01355	-1273.73450	280.61682	1572.48706	-1333.90112	82.88578	1516.95007	-1381.83911	53.00160	1586.60413	-1200.87012	28.34641	1547.68701	-1072.14319	1706.73291	-3102.02466	1972.98145	1024.03503	-3140.67896	2012.56018	1022.11438			 
